<svg width="220" height="41" viewBox="0 0 220 41" fill="none" xmlns="http://www.w3.org/2000/svg">
<path d="M0.00488281 11.4102C0.00488281 10.1934 0.237305 9.05176 0.702148 7.98535C1.16699 6.91895 1.7959 5.98926 2.58887 5.19629C3.39551 4.38965 4.33203 3.75391 5.39844 3.28906C6.46484 2.82422 7.60645 2.5918 8.82324 2.5918H22.3174V8.47754H8.82324C8.41309 8.47754 8.03027 8.55273 7.6748 8.70312C7.31934 8.85352 7.00488 9.06543 6.73145 9.33887C6.47168 9.59863 6.2666 9.90625 6.11621 10.2617C5.96582 10.6172 5.89062 11 5.89062 11.4102C5.89062 11.8203 5.96582 12.21 6.11621 12.5791C6.2666 12.9346 6.47168 13.249 6.73145 13.5225C7.00488 13.7822 7.31934 13.9873 7.6748 14.1377C8.03027 14.2881 8.41309 14.3633 8.82324 14.3633H14.709C15.9258 14.3633 17.0674 14.5957 18.1338 15.0605C19.2139 15.5117 20.1504 16.1406 20.9434 16.9473C21.75 17.7402 22.3789 18.6768 22.8301 19.7568C23.2949 20.8232 23.5273 21.9648 23.5273 23.1816C23.5273 24.3984 23.2949 25.54 22.8301 26.6064C22.3789 27.6729 21.75 28.6094 20.9434 29.416C20.1504 30.209 19.2139 30.8379 18.1338 31.3027C17.0674 31.7676 15.9258 32 14.709 32H1.64551V26.1143H14.709C15.1191 26.1143 15.502 26.0391 15.8574 25.8887C16.2129 25.7383 16.5205 25.5332 16.7803 25.2734C17.0537 25 17.2656 24.6855 17.416 24.3301C17.5664 23.9746 17.6416 23.5918 17.6416 23.1816C17.6416 22.7715 17.5664 22.3887 17.416 22.0332C17.2656 21.6777 17.0537 21.3701 16.7803 21.1104C16.5205 20.8369 16.2129 20.625 15.8574 20.4746C15.502 20.3242 15.1191 20.249 14.709 20.249H8.82324C7.60645 20.249 6.46484 20.0166 5.39844 19.5518C4.33203 19.0869 3.39551 18.458 2.58887 17.665C1.7959 16.8584 1.16699 15.9219 0.702148 14.8555C0.237305 13.7754 0.00488281 12.627 0.00488281 11.4102ZM32.2432 40.3672H26.6035V10.0361H27.957L30.1924 12.6816C30.6982 12.2031 31.252 11.752 31.8535 11.3281C32.4551 10.9043 33.0771 10.542 33.7197 10.2412C34.376 9.92676 35.0527 9.68066 35.75 9.50293C36.4473 9.3252 37.1514 9.23633 37.8623 9.23633C39.4072 9.23633 40.8564 9.5166 42.21 10.0771C43.5771 10.624 44.7666 11.4033 45.7783 12.415C46.8037 13.4268 47.6104 14.6504 48.1982 16.0859C48.7861 17.5078 49.0801 19.0869 49.0801 20.8232C49.0801 22.6279 48.7861 24.2549 48.1982 25.7041C47.6104 27.1396 46.8037 28.3633 45.7783 29.375C44.7666 30.373 43.5771 31.1387 42.21 31.6719C40.8564 32.2051 39.4072 32.4717 37.8623 32.4717C37.3701 32.4717 36.8779 32.417 36.3857 32.3076C35.9072 32.1982 35.4287 32.0547 34.9502 31.877C34.4854 31.6855 34.0205 31.4736 33.5557 31.2412C33.1045 31.0088 32.667 30.7695 32.2432 30.5234V40.3672ZM43.4609 20.8232C43.4609 19.8936 43.3105 19.0596 43.0098 18.3213C42.7227 17.583 42.3262 16.9609 41.8203 16.4551C41.3145 15.9355 40.7197 15.5391 40.0361 15.2656C39.3525 14.9922 38.6279 14.8555 37.8623 14.8555C37.0967 14.8555 36.3721 14.9922 35.6885 15.2656C35.0186 15.5391 34.4307 15.9355 33.9248 16.4551C33.4189 16.9609 33.0156 17.583 32.7148 18.3213C32.4277 19.0596 32.2842 19.8936 32.2842 20.8232C32.2842 21.7119 32.4277 22.5254 32.7148 23.2637C33.0156 24.002 33.4189 24.6309 33.9248 25.1504C34.4307 25.6699 35.0186 26.0732 35.6885 26.3604C36.3721 26.6475 37.0967 26.791 37.8623 26.791C38.6279 26.791 39.3525 26.6475 40.0361 26.3604C40.7197 26.0732 41.3145 25.6699 41.8203 25.1504C42.3262 24.6309 42.7227 24.002 43.0098 23.2637C43.3105 22.5254 43.4609 21.7119 43.4609 20.8232ZM73.4229 20.8232C73.4229 22.4639 73.1289 23.9951 72.541 25.417C71.9531 26.8252 71.1533 28.0488 70.1416 29.0879C69.1299 30.1133 67.9404 30.9268 66.5732 31.5283C65.2197 32.1162 63.7637 32.4102 62.2051 32.4102C60.6602 32.4102 59.2041 32.1162 57.8369 31.5283C56.4834 30.9268 55.2939 30.1133 54.2686 29.0879C53.2568 28.0488 52.457 26.8252 51.8691 25.417C51.2812 23.9951 50.9873 22.4639 50.9873 20.8232C50.9873 19.1553 51.2812 17.6104 51.8691 16.1885C52.457 14.7666 53.2568 13.543 54.2686 12.5176C55.2939 11.4785 56.4834 10.665 57.8369 10.0771C59.2041 9.48926 60.6602 9.19531 62.2051 9.19531C63.7637 9.19531 65.2197 9.47559 66.5732 10.0361C67.9404 10.583 69.1299 11.3691 70.1416 12.3945C71.1533 13.4062 71.9531 14.6299 72.541 16.0654C73.1289 17.4873 73.4229 19.0732 73.4229 20.8232ZM67.7832 20.8232C67.7832 19.9209 67.6328 19.1074 67.332 18.3828C67.0449 17.6445 66.6484 17.0156 66.1426 16.4961C65.6367 15.9629 65.042 15.5596 64.3584 15.2861C63.6885 14.999 62.9707 14.8555 62.2051 14.8555C61.4395 14.8555 60.7148 14.999 60.0312 15.2861C59.3613 15.5596 58.7734 15.9629 58.2676 16.4961C57.7754 17.0156 57.3857 17.6445 57.0986 18.3828C56.8115 19.1074 56.668 19.9209 56.668 20.8232C56.668 21.6709 56.8115 22.457 57.0986 23.1816C57.3857 23.9062 57.7754 24.5352 58.2676 25.0684C58.7734 25.6016 59.3613 26.0254 60.0312 26.3398C60.7148 26.6406 61.4395 26.791 62.2051 26.791C62.9707 26.791 63.6885 26.6475 64.3584 26.3604C65.042 26.0732 65.6367 25.6699 66.1426 25.1504C66.6484 24.6309 67.0449 24.002 67.332 23.2637C67.6328 22.5254 67.7832 21.7119 67.7832 20.8232ZM82.1182 32H76.5195V10.0361H77.873L79.7188 12.6406C80.6211 11.8203 81.6465 11.1914 82.7949 10.7539C83.9434 10.3027 85.1328 10.0771 86.3633 10.0771H91.3057V15.6553H86.3633C85.7754 15.6553 85.2217 15.7646 84.7021 15.9834C84.1826 16.2021 83.7314 16.5029 83.3486 16.8857C82.9658 17.2686 82.665 17.7197 82.4463 18.2393C82.2275 18.7588 82.1182 19.3125 82.1182 19.9004V32ZM104.923 32C103.569 32 102.298 31.7471 101.108 31.2412C99.9189 30.7217 98.873 30.0176 97.9707 29.1289C97.082 28.2266 96.3779 27.1807 95.8584 25.9912C95.3525 24.8018 95.0996 23.5303 95.0996 22.1768V15.6553H92.3721V10.0771H95.0996V1.2998H100.678V10.0771H109.168V15.6553H100.678V22.1768C100.678 22.7646 100.787 23.3184 101.006 23.8379C101.225 24.3438 101.525 24.7881 101.908 25.1709C102.291 25.5537 102.742 25.8613 103.262 26.0938C103.781 26.3125 104.335 26.4219 104.923 26.4219H109.168V32H104.923ZM124.385 32H111.588V26.4219H124.385C124.768 26.4219 125.096 26.2852 125.369 26.0117C125.643 25.7383 125.779 25.4102 125.779 25.0273C125.779 24.6309 125.643 24.3711 125.369 24.248C125.096 24.125 124.768 24.0635 124.385 24.0635H118.561C117.59 24.0635 116.681 23.8789 115.833 23.5098C114.985 23.1406 114.247 22.6416 113.618 22.0127C112.989 21.3701 112.49 20.625 112.121 19.7773C111.766 18.9297 111.588 18.0205 111.588 17.0498C111.588 16.0791 111.766 15.1699 112.121 14.3223C112.49 13.4746 112.989 12.7363 113.618 12.1074C114.247 11.4785 114.985 10.9863 115.833 10.6309C116.681 10.2617 117.59 10.0771 118.561 10.0771H129.901V15.6553H118.561C118.178 15.6553 117.85 15.792 117.576 16.0654C117.303 16.3389 117.166 16.667 117.166 17.0498C117.166 17.4463 117.303 17.7881 117.576 18.0752C117.85 18.3486 118.178 18.4854 118.561 18.4854H124.385C125.342 18.4854 126.244 18.6494 127.092 18.9775C127.939 19.292 128.678 19.7363 129.307 20.3105C129.936 20.8848 130.435 21.5752 130.804 22.3818C131.173 23.1885 131.357 24.0703 131.357 25.0273C131.357 25.998 131.173 26.9072 130.804 27.7549C130.435 28.5889 129.936 29.3271 129.307 29.9697C128.678 30.5986 127.939 31.0977 127.092 31.4668C126.244 31.8223 125.342 32 124.385 32Z" fill="#DC2A2A"/>
<path d="M147.292 32H141.427V8.47754H132.588V2.5918H156.11V8.47754H147.292V32ZM165.236 4.06836C165.236 4.58789 165.134 5.07324 164.929 5.52441C164.737 5.97559 164.471 6.37207 164.129 6.71387C163.787 7.04199 163.384 7.30859 162.919 7.51367C162.468 7.70508 161.982 7.80078 161.463 7.80078C160.943 7.80078 160.451 7.70508 159.986 7.51367C159.535 7.30859 159.139 7.04199 158.797 6.71387C158.469 6.37207 158.202 5.97559 157.997 5.52441C157.806 5.07324 157.71 4.58789 157.71 4.06836C157.71 3.5625 157.806 3.08398 157.997 2.63281C158.202 2.16797 158.469 1.77148 158.797 1.44336C159.139 1.10156 159.535 0.834961 159.986 0.643555C160.451 0.438477 160.943 0.335938 161.463 0.335938C161.982 0.335938 162.468 0.438477 162.919 0.643555C163.384 0.834961 163.787 1.10156 164.129 1.44336C164.471 1.77148 164.737 2.16797 164.929 2.63281C165.134 3.08398 165.236 3.5625 165.236 4.06836ZM164.272 32H158.633V10.0361H164.272V32ZM196.49 32H190.912V18.0547C190.912 17.6719 190.837 17.3096 190.687 16.9678C190.55 16.626 190.352 16.3252 190.092 16.0654C189.832 15.8057 189.531 15.6074 189.189 15.4707C188.848 15.3203 188.485 15.2451 188.103 15.2451C187.72 15.2451 187.357 15.3203 187.016 15.4707C186.688 15.6074 186.394 15.8057 186.134 16.0654C185.888 16.3252 185.689 16.626 185.539 16.9678C185.402 17.3096 185.334 17.6719 185.334 18.0547V32H179.735V18.0547C179.735 17.6719 179.66 17.3096 179.51 16.9678C179.373 16.626 179.175 16.3252 178.915 16.0654C178.655 15.8057 178.354 15.6074 178.013 15.4707C177.671 15.3203 177.309 15.2451 176.926 15.2451C176.543 15.2451 176.181 15.3203 175.839 15.4707C175.511 15.6074 175.217 15.8057 174.957 16.0654C174.711 16.3252 174.513 16.626 174.362 16.9678C174.226 17.3096 174.157 17.6719 174.157 18.0547V32H168.559V10.0361H169.912L171.43 11.7178C172.209 11.0615 173.063 10.5557 173.993 10.2002C174.937 9.83105 175.914 9.64648 176.926 9.64648C177.951 9.64648 178.949 9.83789 179.92 10.2207C180.904 10.6035 181.766 11.2666 182.504 12.21C182.846 11.7451 183.235 11.3486 183.673 11.0205C184.11 10.6924 184.568 10.4258 185.047 10.2207C185.539 10.0156 186.045 9.87207 186.564 9.79004C187.084 9.69434 187.597 9.64648 188.103 9.64648C189.265 9.64648 190.352 9.86523 191.363 10.3027C192.389 10.7402 193.277 11.3418 194.029 12.1074C194.795 12.8594 195.396 13.748 195.834 14.7734C196.271 15.7988 196.49 16.8926 196.49 18.0547V32ZM209.328 26.627C209.547 26.6953 209.766 26.7432 209.984 26.7705C210.203 26.7842 210.422 26.791 210.641 26.791C211.188 26.791 211.714 26.7158 212.22 26.5654C212.726 26.415 213.197 26.2031 213.635 25.9297C214.086 25.6426 214.482 25.3008 214.824 24.9043C215.18 24.4941 215.467 24.043 215.686 23.5508L219.787 27.6729C219.268 28.4111 218.666 29.0742 217.982 29.6621C217.312 30.25 216.581 30.749 215.788 31.1592C215.009 31.5693 214.182 31.877 213.307 32.082C212.445 32.3008 211.557 32.4102 210.641 32.4102C209.096 32.4102 207.64 32.123 206.272 31.5488C204.919 30.9746 203.729 30.1748 202.704 29.1494C201.692 28.124 200.893 26.9072 200.305 25.499C199.717 24.0771 199.423 22.5186 199.423 20.8232C199.423 19.0869 199.717 17.501 200.305 16.0654C200.893 14.6299 201.692 13.4062 202.704 12.3945C203.729 11.3828 204.919 10.5967 206.272 10.0361C207.64 9.47559 209.096 9.19531 210.641 9.19531C211.557 9.19531 212.452 9.30469 213.327 9.52344C214.202 9.74219 215.029 10.0566 215.809 10.4668C216.602 10.877 217.34 11.3828 218.023 11.9844C218.707 12.5723 219.309 13.2354 219.828 13.9736L209.328 26.627ZM212.199 15.0811C211.939 14.9854 211.68 14.9238 211.42 14.8965C211.174 14.8691 210.914 14.8555 210.641 14.8555C209.875 14.8555 209.15 14.999 208.467 15.2861C207.797 15.5596 207.209 15.9561 206.703 16.4756C206.211 16.9951 205.821 17.624 205.534 18.3623C205.247 19.0869 205.104 19.9072 205.104 20.8232C205.104 21.0283 205.11 21.2607 205.124 21.5205C205.151 21.7803 205.186 22.0469 205.227 22.3203C205.281 22.5801 205.343 22.833 205.411 23.0791C205.479 23.3252 205.568 23.5439 205.678 23.7354L212.199 15.0811Z" fill="#2E6EEA"/>
</svg>
