<svg width="149" height="31" viewBox="0 0 149 31" fill="none" xmlns="http://www.w3.org/2000/svg">
<path d="M15.0732 30H9.20801V6.47754H0.369141V0.591797H23.8916V6.47754H15.0732V30ZM30.085 30H24.4863V8.03613H25.8398L27.6855 10.6406C28.5879 9.82031 29.6133 9.19141 30.7617 8.75391C31.9102 8.30273 33.0996 8.07715 34.3301 8.07715H39.2725V13.6553H34.3301C33.7422 13.6553 33.1885 13.7646 32.6689 13.9834C32.1494 14.2021 31.6982 14.5029 31.3154 14.8857C30.9326 15.2686 30.6318 15.7197 30.4131 16.2393C30.1943 16.7588 30.085 17.3125 30.085 17.9004V30ZM62.7334 30H61.3799L59.2061 26.9854C58.6729 27.4639 58.1055 27.915 57.5039 28.3389C56.916 28.749 56.2939 29.1113 55.6377 29.4258C54.9814 29.7266 54.3047 29.9658 53.6074 30.1436C52.9238 30.3213 52.2266 30.4102 51.5156 30.4102C49.9707 30.4102 48.5146 30.1504 47.1475 29.6309C45.7939 29.1113 44.6045 28.3594 43.5791 27.375C42.5674 26.377 41.7676 25.1602 41.1797 23.7246C40.5918 22.2891 40.2979 20.6553 40.2979 18.8232C40.2979 17.1143 40.5918 15.5488 41.1797 14.127C41.7676 12.6914 42.5674 11.4609 43.5791 10.4355C44.6045 9.41016 45.7939 8.61719 47.1475 8.05664C48.5146 7.48242 49.9707 7.19531 51.5156 7.19531C52.2266 7.19531 52.9307 7.28418 53.6279 7.46191C54.3252 7.63965 55.002 7.88574 55.6582 8.2002C56.3145 8.51465 56.9365 8.88379 57.5244 9.30762C58.126 9.73145 58.6865 10.1895 59.2061 10.6816L61.3799 8.07715H62.7334V30ZM57.0938 18.8232C57.0938 18.0576 56.9434 17.3193 56.6426 16.6084C56.3555 15.8838 55.959 15.248 55.4531 14.7012C54.9473 14.1406 54.3525 13.6963 53.6689 13.3682C52.999 13.0264 52.2812 12.8555 51.5156 12.8555C50.75 12.8555 50.0254 12.9854 49.3418 13.2451C48.6719 13.5049 48.084 13.8877 47.5781 14.3936C47.0859 14.8994 46.6963 15.5283 46.4092 16.2803C46.1221 17.0186 45.9785 17.8662 45.9785 18.8232C45.9785 19.7803 46.1221 20.6348 46.4092 21.3867C46.6963 22.125 47.0859 22.7471 47.5781 23.2529C48.084 23.7588 48.6719 24.1416 49.3418 24.4014C50.0254 24.6611 50.75 24.791 51.5156 24.791C52.2812 24.791 52.999 24.627 53.6689 24.2988C54.3525 23.957 54.9473 23.5127 55.4531 22.9658C55.959 22.4053 56.3555 21.7695 56.6426 21.0586C56.9434 20.334 57.0938 19.5889 57.0938 18.8232ZM73.2539 30L64.8867 8.03613H71.2646L76.0635 21.7354L80.8418 8.03613H87.2402L78.873 30H73.2539ZM105.267 27.4365C104.815 27.8467 104.33 28.2363 103.811 28.6055C103.305 28.9609 102.771 29.2754 102.211 29.5488C101.65 29.8086 101.069 30.0137 100.468 30.1641C99.8799 30.3281 99.2783 30.4102 98.6631 30.4102C97.3096 30.4102 96.0381 30.1709 94.8486 29.6924C93.6592 29.2139 92.6133 28.5371 91.7109 27.6621C90.8223 26.7734 90.1182 25.7002 89.5986 24.4424C89.0928 23.1709 88.8398 21.749 88.8398 20.1768V8.03613H94.418V20.1768C94.418 20.915 94.5273 21.5781 94.7461 22.166C94.9785 22.7402 95.2861 23.2256 95.6689 23.6221C96.0518 24.0186 96.4961 24.3193 97.002 24.5244C97.5215 24.7295 98.0752 24.832 98.6631 24.832C99.2373 24.832 99.7773 24.7021 100.283 24.4424C100.803 24.1689 101.254 23.8135 101.637 23.376C102.02 22.9385 102.32 22.4463 102.539 21.8994C102.758 21.3389 102.867 20.7646 102.867 20.1768V8.03613H108.466V30H107.112L105.267 27.4365ZM118.351 30H112.752V8.03613H114.105L115.951 10.6406C116.854 9.82031 117.879 9.19141 119.027 8.75391C120.176 8.30273 121.365 8.07715 122.596 8.07715H127.538V13.6553H122.596C122.008 13.6553 121.454 13.7646 120.935 13.9834C120.415 14.2021 119.964 14.5029 119.581 14.8857C119.198 15.2686 118.897 15.7197 118.679 16.2393C118.46 16.7588 118.351 17.3125 118.351 17.9004V30ZM138.469 24.627C138.688 24.6953 138.906 24.7432 139.125 24.7705C139.344 24.7842 139.562 24.791 139.781 24.791C140.328 24.791 140.854 24.7158 141.36 24.5654C141.866 24.415 142.338 24.2031 142.775 23.9297C143.227 23.6426 143.623 23.3008 143.965 22.9043C144.32 22.4941 144.607 22.043 144.826 21.5508L148.928 25.6729C148.408 26.4111 147.807 27.0742 147.123 27.6621C146.453 28.25 145.722 28.749 144.929 29.1592C144.149 29.5693 143.322 29.877 142.447 30.082C141.586 30.3008 140.697 30.4102 139.781 30.4102C138.236 30.4102 136.78 30.123 135.413 29.5488C134.06 28.9746 132.87 28.1748 131.845 27.1494C130.833 26.124 130.033 24.9072 129.445 23.499C128.857 22.0771 128.563 20.5186 128.563 18.8232C128.563 17.0869 128.857 15.501 129.445 14.0654C130.033 12.6299 130.833 11.4062 131.845 10.3945C132.87 9.38281 134.06 8.59668 135.413 8.03613C136.78 7.47559 138.236 7.19531 139.781 7.19531C140.697 7.19531 141.593 7.30469 142.468 7.52344C143.343 7.74219 144.17 8.05664 144.949 8.4668C145.742 8.87695 146.48 9.38281 147.164 9.98438C147.848 10.5723 148.449 11.2354 148.969 11.9736L138.469 24.627ZM141.34 13.0811C141.08 12.9854 140.82 12.9238 140.561 12.8965C140.314 12.8691 140.055 12.8555 139.781 12.8555C139.016 12.8555 138.291 12.999 137.607 13.2861C136.938 13.5596 136.35 13.9561 135.844 14.4756C135.352 14.9951 134.962 15.624 134.675 16.3623C134.388 17.0869 134.244 17.9072 134.244 18.8232C134.244 19.0283 134.251 19.2607 134.265 19.5205C134.292 19.7803 134.326 20.0469 134.367 20.3203C134.422 20.5801 134.483 20.833 134.552 21.0791C134.62 21.3252 134.709 21.5439 134.818 21.7354L141.34 13.0811Z" fill="#7FB992"/>
</svg>
