<svg width="62" height="62" viewBox="0 0 62 62" fill="none" xmlns="http://www.w3.org/2000/svg">
<path d="M31 6.19995C17.3042 6.19995 6.20001 17.3042 6.20001 31C6.20001 44.6958 17.3042 55.8 31 55.8C44.6958 55.8 55.8 44.6958 55.8 31C55.8 17.3042 44.6958 6.19995 31 6.19995ZM44.359 25.9056C44.3713 26.1805 44.3775 26.4533 44.3775 26.7261C44.3775 35.1333 37.9812 44.8218 26.2818 44.8218C22.6879 44.8218 19.3461 43.7699 16.5333 41.9636C17.0314 42.0236 17.5377 42.0504 18.0523 42.0504C21.0345 42.0504 23.7749 41.0357 25.9491 39.3266C23.1653 39.2749 20.8155 37.4356 20.0074 34.9101C20.3959 34.9845 20.7948 35.0238 21.204 35.0238C21.7847 35.0238 22.3489 34.9452 22.8801 34.8006C19.9702 34.2178 17.7775 31.6468 17.7775 28.5654C17.7775 28.5386 17.7775 28.5117 17.7775 28.4848C18.6351 28.9622 19.6147 29.2474 20.6584 29.2805C18.9534 28.1418 17.8291 26.1929 17.8291 23.9878C17.8291 22.8201 18.1412 21.7268 18.6889 20.7906C21.8261 24.6388 26.5133 27.1725 31.7977 27.437C31.6903 26.972 31.6345 26.4864 31.6345 25.9883C31.6345 22.477 34.4823 19.6271 37.9936 19.6271C39.8226 19.6271 41.4759 20.4 42.6353 21.6359C44.0841 21.3486 45.446 20.8216 46.6757 20.0921C46.2003 21.578 45.1918 22.8222 43.8774 23.6116C45.1629 23.4587 46.3884 23.1177 47.5313 22.6114C46.6819 23.8886 45.6052 25.0066 44.359 25.9056Z" fill="white"/>
</svg>
